<svg id="svg" version="1.1" xmlns="http://www.w3.org/2000/svg" xmlns:xlink="http://www.w3.org/1999/xlink" width="400" height="400" viewBox="0, 0, 400,400"><g id="svgg"><path id="path0" d="M152.400 0.258 C 150.093 1.029,146.400 4.187,146.400 5.389 C 146.400 5.725,146.220 6.000,146.000 6.000 C 145.780 6.000,145.600 6.360,145.600 6.800 C 145.600 7.240,145.420 7.600,145.200 7.600 C 144.980 7.600,144.800 7.926,144.800 8.325 C 144.800 8.724,144.440 9.795,144.000 10.706 C 143.560 11.616,143.200 12.529,143.200 12.735 C 143.200 12.940,142.931 13.624,142.602 14.254 C 142.274 14.884,142.004 15.794,142.002 16.276 C 142.001 16.758,141.820 17.264,141.600 17.400 C 141.380 17.536,141.200 18.076,141.200 18.600 C 141.200 19.124,141.020 19.664,140.800 19.800 C 140.580 19.936,140.400 20.397,140.400 20.824 C 140.400 21.251,140.220 21.600,140.000 21.600 C 139.780 21.600,139.600 22.140,139.600 22.800 C 139.600 23.460,139.420 24.000,139.200 24.000 C 138.980 24.000,138.800 24.360,138.800 24.800 C 138.800 25.240,138.620 25.600,138.400 25.600 C 138.180 25.600,138.000 26.050,138.000 26.600 C 138.000 27.150,137.820 27.600,137.600 27.600 C 137.380 27.600,137.200 28.050,137.200 28.600 C 137.200 29.150,137.020 29.600,136.800 29.600 C 136.580 29.600,136.400 30.050,136.400 30.600 C 136.400 31.150,136.220 31.600,136.000 31.600 C 135.780 31.600,135.600 32.140,135.600 32.800 C 135.600 33.460,135.420 34.000,135.200 34.000 C 134.980 34.000,134.800 34.360,134.800 34.800 C 134.800 35.240,134.620 35.600,134.400 35.600 C 134.180 35.600,134.000 36.140,134.000 36.800 C 134.000 37.460,133.820 38.000,133.600 38.000 C 133.380 38.000,133.200 38.360,133.200 38.800 C 133.200 39.240,133.020 39.600,132.800 39.600 C 132.580 39.600,132.400 40.140,132.400 40.800 C 132.400 41.460,132.220 42.000,132.000 42.000 C 131.780 42.000,131.600 42.450,131.600 43.000 C 131.600 43.550,131.420 44.000,131.200 44.000 C 130.980 44.000,130.800 44.349,130.800 44.776 C 130.800 45.203,130.620 45.664,130.400 45.800 C 130.180 45.936,130.000 46.487,130.000 47.024 C 130.000 47.561,129.820 48.000,129.600 48.000 C 129.380 48.000,129.200 48.349,129.200 48.776 C 129.200 49.203,129.020 49.664,128.800 49.800 C 128.580 49.936,128.400 50.487,128.400 51.024 C 128.400 51.561,128.220 52.000,128.000 52.000 C 127.780 52.000,127.600 52.362,127.600 52.805 C 127.600 53.248,127.420 53.968,127.200 54.405 C 126.980 54.842,126.620 55.558,126.400 55.995 C 126.180 56.432,126.000 57.041,126.000 57.349 C 126.000 57.657,125.731 58.424,125.402 59.054 C 125.074 59.684,124.804 60.605,124.802 61.100 C 124.801 61.595,124.620 62.000,124.400 62.000 C 124.180 62.000,124.000 62.349,124.000 62.776 C 124.000 63.203,123.820 63.664,123.600 63.800 C 123.380 63.936,123.200 64.487,123.200 65.024 C 123.200 65.561,123.020 66.000,122.800 66.000 C 122.580 66.000,122.400 66.439,122.400 66.976 C 122.400 67.513,122.220 68.064,122.000 68.200 C 121.780 68.336,121.600 68.797,121.600 69.224 C 121.600 69.651,121.420 70.000,121.200 70.000 C 120.980 70.000,120.800 70.540,120.800 71.200 C 120.800 71.860,120.620 72.400,120.400 72.400 C 120.180 72.400,120.000 72.760,120.000 73.200 C 120.000 73.640,119.820 74.000,119.600 74.000 C 119.380 74.000,119.200 74.362,119.200 74.805 C 119.200 75.248,119.020 75.968,118.800 76.405 C 118.580 76.842,118.220 77.558,118.000 77.995 C 117.780 78.432,117.600 79.062,117.600 79.395 C 117.600 79.728,117.420 80.000,117.200 80.000 C 116.980 80.000,116.800 80.540,116.800 81.200 C 116.800 81.860,116.620 82.400,116.400 82.400 C 116.180 82.400,116.000 82.749,116.000 83.176 C 116.000 83.603,115.820 84.064,115.600 84.200 C 115.380 84.336,115.200 84.887,115.200 85.424 C 115.200 85.961,115.020 86.400,114.800 86.400 C 114.580 86.400,114.400 86.749,114.400 87.176 C 114.400 87.603,114.220 88.064,114.000 88.200 C 113.780 88.336,113.600 88.887,113.600 89.424 C 113.600 89.961,113.420 90.400,113.200 90.400 C 112.980 90.400,112.800 90.755,112.800 91.188 C 112.800 91.621,112.440 92.617,112.000 93.400 C 111.560 94.183,111.200 95.143,111.200 95.532 C 111.200 95.921,111.036 96.411,110.835 96.620 C 110.396 97.077,108.400 102.970,108.400 103.808 C 108.400 104.134,108.220 104.400,108.000 104.400 C 107.780 104.400,107.600 104.940,107.600 105.600 C 107.600 106.260,107.420 106.800,107.200 106.800 C 106.980 106.800,106.800 107.160,106.800 107.600 C 106.800 108.040,106.620 108.400,106.400 108.400 C 106.180 108.400,106.000 108.850,106.000 109.400 C 106.000 109.950,105.820 110.400,105.600 110.400 C 105.380 110.400,105.200 110.850,105.200 111.400 C 105.200 111.950,105.020 112.400,104.800 112.400 C 104.580 112.400,104.400 112.850,104.400 113.400 C 104.400 113.950,104.220 114.400,104.000 114.400 C 103.780 114.400,103.600 114.940,103.600 115.600 C 103.600 116.260,103.420 116.800,103.200 116.800 C 102.980 116.800,102.800 117.160,102.800 117.600 C 102.800 118.040,102.620 118.400,102.400 118.400 C 102.180 118.400,102.000 118.940,102.000 119.600 C 102.000 120.260,101.820 120.800,101.600 120.800 C 101.380 120.800,101.200 121.160,101.200 121.600 C 101.200 122.040,101.020 122.400,100.800 122.400 C 100.580 122.400,100.400 122.940,100.400 123.600 C 100.400 124.260,100.220 124.800,100.000 124.800 C 99.780 124.800,99.600 125.250,99.600 125.800 C 99.600 126.350,99.420 126.800,99.200 126.800 C 98.980 126.800,98.800 127.149,98.800 127.576 C 98.800 128.003,98.620 128.464,98.400 128.600 C 98.180 128.736,98.000 129.287,98.000 129.824 C 98.000 130.361,97.820 130.800,97.600 130.800 C 97.380 130.800,97.200 131.149,97.200 131.576 C 97.200 132.003,97.020 132.464,96.800 132.600 C 96.580 132.736,96.400 133.287,96.400 133.824 C 96.400 134.361,96.253 134.800,96.072 134.800 C 95.892 134.800,95.500 135.700,95.200 136.800 C 94.900 137.900,94.508 138.800,94.328 138.800 C 94.147 138.800,94.000 139.340,94.000 140.000 C 94.000 140.660,93.865 141.200,93.700 141.200 C 93.535 141.200,93.053 142.325,92.629 143.700 C 92.205 145.075,91.710 146.371,91.529 146.580 C 91.348 146.789,91.200 147.374,91.200 147.880 C 91.200 148.386,91.020 148.800,90.800 148.800 C 90.580 148.800,90.400 149.239,90.400 149.776 C 90.400 150.313,90.220 150.864,90.000 151.000 C 89.780 151.136,89.600 151.597,89.600 152.024 C 89.600 152.451,89.420 152.800,89.200 152.800 C 88.980 152.800,88.800 153.340,88.800 154.000 C 88.800 154.660,88.620 155.200,88.400 155.200 C 88.180 155.200,88.000 155.560,88.000 156.000 C 88.000 156.440,87.820 156.800,87.600 156.800 C 87.380 156.800,87.200 157.340,87.200 158.000 C 87.200 158.660,87.020 159.200,86.800 159.200 C 86.580 159.200,86.400 159.549,86.400 159.976 C 86.400 160.403,86.220 160.864,86.000 161.000 C 85.780 161.136,85.600 161.597,85.600 162.024 C 85.600 162.451,85.420 162.800,85.200 162.800 C 84.980 162.800,84.800 163.340,84.800 164.000 C 84.800 164.660,84.620 165.200,84.400 165.200 C 84.180 165.200,84.000 165.560,84.000 166.000 C 84.000 166.440,83.820 166.800,83.600 166.800 C 83.380 166.800,83.200 167.340,83.200 168.000 C 83.200 168.660,83.020 169.200,82.800 169.200 C 82.580 169.200,82.400 169.549,82.400 169.976 C 82.400 170.403,82.220 170.864,82.000 171.000 C 81.780 171.136,81.600 171.687,81.600 172.224 C 81.600 172.761,81.420 173.200,81.200 173.200 C 80.980 173.200,80.800 173.740,80.800 174.400 C 80.800 175.060,80.620 175.600,80.400 175.600 C 80.180 175.600,80.000 175.960,80.000 176.400 C 80.000 176.840,79.820 177.200,79.600 177.200 C 79.380 177.200,79.200 177.650,79.200 178.200 C 79.200 178.750,79.053 179.200,78.872 179.200 C 78.692 179.200,78.296 180.111,77.993 181.225 C 77.690 182.339,77.297 183.340,77.121 183.449 C 76.944 183.558,76.800 184.087,76.800 184.624 C 76.800 185.161,76.660 185.600,76.489 185.600 C 76.181 185.600,74.800 189.788,74.800 190.720 C 74.800 190.984,74.620 191.200,74.400 191.200 C 74.180 191.200,74.000 191.650,74.000 192.200 C 74.000 192.750,73.820 193.200,73.600 193.200 C 73.380 193.200,73.200 193.650,73.200 194.200 C 73.200 194.750,73.020 195.200,72.800 195.200 C 72.580 195.200,72.400 195.650,72.400 196.200 C 72.400 196.750,72.220 197.200,72.000 197.200 C 71.780 197.200,71.600 197.740,71.600 198.400 C 71.600 199.060,71.420 199.600,71.200 199.600 C 70.980 199.600,70.800 199.960,70.800 200.400 C 70.800 200.840,70.620 201.200,70.400 201.200 C 70.180 201.200,70.000 201.740,70.000 202.400 C 70.000 203.060,69.820 203.600,69.600 203.600 C 69.380 203.600,69.200 203.960,69.200 204.400 C 69.200 204.840,69.020 205.200,68.800 205.200 C 68.580 205.200,68.400 205.740,68.400 206.400 C 68.400 207.060,68.220 207.600,68.000 207.600 C 67.780 207.600,67.600 208.050,67.600 208.600 C 67.600 209.150,67.420 209.600,67.200 209.600 C 66.956 209.600,66.800 211.467,66.800 214.400 C 66.800 217.333,66.956 219.200,67.200 219.200 C 67.420 219.200,67.600 219.468,67.600 219.795 C 67.600 221.110,71.156 224.731,72.763 225.053 C 73.443 225.189,74.000 225.458,74.000 225.650 C 74.000 225.843,74.529 226.000,75.176 226.000 C 75.823 226.000,76.464 226.180,76.600 226.400 C 76.763 226.663,95.271 226.800,130.824 226.800 C 166.541 226.800,184.800 226.935,184.800 227.200 C 184.800 227.420,184.620 227.600,184.400 227.600 C 184.180 227.600,184.000 228.320,184.000 229.200 C 184.000 230.080,183.820 230.800,183.600 230.800 C 183.380 230.800,183.200 231.520,183.200 232.400 C 183.200 233.280,183.020 234.000,182.800 234.000 C 182.580 234.000,182.400 234.720,182.400 235.600 C 182.400 236.480,182.220 237.200,182.000 237.200 C 181.780 237.200,181.600 237.920,181.600 238.800 C 181.600 239.680,181.420 240.400,181.200 240.400 C 180.980 240.400,180.800 241.019,180.800 241.776 C 180.800 242.533,180.620 243.264,180.400 243.400 C 180.180 243.536,180.000 244.256,180.000 245.000 C 180.000 245.744,179.820 246.464,179.600 246.600 C 179.380 246.736,179.200 247.467,179.200 248.224 C 179.200 248.981,179.020 249.600,178.800 249.600 C 178.580 249.600,178.400 250.320,178.400 251.200 C 178.400 252.080,178.220 252.800,178.000 252.800 C 177.780 252.800,177.600 253.520,177.600 254.400 C 177.600 255.280,177.420 256.000,177.200 256.000 C 176.980 256.000,176.800 256.632,176.800 257.405 C 176.800 258.178,176.636 259.123,176.436 259.505 C 175.910 260.511,174.800 265.701,174.800 267.157 C 174.800 267.841,174.620 268.400,174.400 268.400 C 174.180 268.400,174.000 269.120,174.000 270.000 C 174.000 270.880,173.820 271.600,173.600 271.600 C 173.380 271.600,173.200 272.320,173.200 273.200 C 173.200 274.080,173.020 274.800,172.800 274.800 C 172.580 274.800,172.400 275.419,172.400 276.176 C 172.400 276.933,172.220 277.664,172.000 277.800 C 171.780 277.936,171.600 278.667,171.600 279.424 C 171.600 280.181,171.420 280.800,171.200 280.800 C 170.980 280.800,170.800 281.520,170.800 282.400 C 170.800 283.280,170.620 284.000,170.400 284.000 C 170.180 284.000,170.000 284.720,170.000 285.600 C 170.000 286.480,169.820 287.200,169.600 287.200 C 169.380 287.200,169.200 287.920,169.200 288.800 C 169.200 289.680,169.020 290.400,168.800 290.400 C 168.580 290.400,168.400 291.120,168.400 292.000 C 168.400 292.880,168.220 293.600,168.000 293.600 C 167.780 293.600,167.600 294.219,167.600 294.976 C 167.600 295.733,167.420 296.464,167.200 296.600 C 166.980 296.736,166.800 297.456,166.800 298.200 C 166.800 298.944,166.620 299.664,166.400 299.800 C 166.180 299.936,166.000 300.656,166.000 301.400 C 166.000 302.144,165.820 302.864,165.600 303.000 C 165.380 303.136,165.200 303.856,165.200 304.600 C 165.200 305.344,165.020 306.064,164.800 306.200 C 164.580 306.336,164.400 307.056,164.400 307.800 C 164.400 308.544,164.220 309.264,164.000 309.400 C 163.780 309.536,163.600 310.256,163.600 311.000 C 163.600 311.744,163.420 312.464,163.200 312.600 C 162.980 312.736,162.800 313.456,162.800 314.200 C 162.800 314.944,162.640 315.652,162.444 315.773 C 162.249 315.894,161.992 316.579,161.873 317.296 C 161.755 318.013,161.465 319.365,161.229 320.300 C 160.993 321.235,160.612 322.765,160.382 323.700 C 160.152 324.635,159.775 326.120,159.544 327.000 C 159.314 327.880,158.926 329.905,158.683 331.500 C 158.440 333.095,158.097 334.400,157.921 334.400 C 157.744 334.400,157.600 335.109,157.600 335.976 C 157.600 336.843,157.420 337.664,157.200 337.800 C 156.980 337.936,156.800 338.656,156.800 339.400 C 156.800 340.144,156.620 340.864,156.400 341.000 C 156.180 341.136,156.000 341.867,156.000 342.624 C 156.000 343.381,155.820 344.000,155.600 344.000 C 155.380 344.000,155.200 344.619,155.200 345.376 C 155.200 346.133,155.020 346.864,154.800 347.000 C 154.580 347.136,154.400 347.957,154.400 348.824 C 154.400 349.691,154.220 350.400,154.000 350.400 C 153.780 350.400,153.600 351.120,153.600 352.000 C 153.600 352.880,153.420 353.600,153.200 353.600 C 152.980 353.600,152.800 354.320,152.800 355.200 C 152.800 356.080,152.620 356.800,152.400 356.800 C 152.180 356.800,152.000 357.419,152.000 358.176 C 152.000 358.933,151.820 359.664,151.600 359.800 C 151.380 359.936,151.200 360.667,151.200 361.424 C 151.200 362.181,151.020 362.800,150.800 362.800 C 150.580 362.800,150.400 363.520,150.400 364.400 C 150.400 365.280,150.220 366.000,150.000 366.000 C 149.780 366.000,149.600 366.720,149.600 367.600 C 149.600 368.480,149.420 369.200,149.200 369.200 C 148.980 369.200,148.800 369.920,148.800 370.800 C 148.800 371.680,148.620 372.400,148.400 372.400 C 148.180 372.400,148.000 373.120,148.000 374.000 C 148.000 374.880,147.820 375.600,147.600 375.600 C 147.380 375.600,147.200 376.219,147.200 376.976 C 147.200 377.733,147.020 378.464,146.800 378.600 C 146.580 378.736,146.400 379.467,146.400 380.224 C 146.400 380.981,146.220 381.600,146.000 381.600 C 145.780 381.600,145.600 382.320,145.600 383.200 C 145.600 384.080,145.420 384.800,145.200 384.800 C 144.965 384.800,144.800 386.200,144.800 388.200 C 144.800 390.200,144.965 391.600,145.200 391.600 C 145.420 391.600,145.600 392.140,145.600 392.800 C 145.600 393.460,145.768 394.000,145.973 394.000 C 146.178 394.000,146.459 394.357,146.598 394.793 C 146.946 395.890,149.805 398.800,150.535 398.800 C 150.864 398.800,151.208 399.025,151.300 399.300 C 151.423 399.670,153.009 399.800,157.400 399.800 C 161.791 399.800,163.377 399.670,163.500 399.300 C 163.592 399.025,163.940 398.800,164.273 398.800 C 165.005 398.800,168.400 395.293,168.400 394.536 C 168.400 394.241,168.558 394.000,168.751 394.000 C 168.945 394.000,169.327 393.460,169.600 392.800 C 169.873 392.140,170.255 391.600,170.449 391.600 C 170.642 391.600,170.800 391.358,170.800 391.062 C 170.800 390.766,171.160 390.198,171.600 389.800 C 172.040 389.402,172.400 388.916,172.400 388.721 C 172.400 388.526,172.583 388.149,172.806 387.883 C 173.661 386.864,175.200 384.346,175.200 383.966 C 175.200 383.746,175.560 383.180,176.000 382.708 C 176.440 382.236,176.800 381.613,176.800 381.325 C 176.800 381.036,176.980 380.800,177.200 380.800 C 177.420 380.800,177.600 380.480,177.600 380.088 C 177.600 379.697,177.960 379.117,178.400 378.800 C 178.840 378.483,179.200 377.943,179.200 377.600 C 179.200 377.257,179.560 376.717,180.000 376.400 C 180.440 376.083,180.800 375.593,180.800 375.312 C 180.800 375.030,180.980 374.800,181.200 374.800 C 181.420 374.800,181.600 374.530,181.600 374.200 C 181.600 373.870,181.780 373.600,182.000 373.600 C 182.220 373.600,182.400 373.330,182.400 373.000 C 182.400 372.670,182.580 372.400,182.800 372.400 C 183.020 372.400,183.200 372.164,183.200 371.875 C 183.200 371.587,183.560 370.964,184.000 370.492 C 184.440 370.020,184.800 369.396,184.800 369.105 C 184.800 368.814,185.160 368.317,185.600 368.000 C 186.040 367.683,186.400 367.186,186.400 366.895 C 186.400 366.604,186.760 365.980,187.200 365.508 C 187.640 365.036,188.000 364.413,188.000 364.125 C 188.000 363.836,188.158 363.600,188.351 363.600 C 188.545 363.600,188.927 363.060,189.200 362.400 C 189.473 361.740,189.810 361.198,189.949 361.195 C 190.087 361.193,190.559 360.428,190.999 359.495 C 191.438 358.563,192.113 357.451,192.499 357.025 C 192.884 356.598,193.200 356.053,193.200 355.813 C 193.200 355.573,193.560 355.117,194.000 354.800 C 194.440 354.483,194.800 353.986,194.800 353.695 C 194.800 353.404,195.160 352.780,195.600 352.308 C 196.040 351.836,196.400 351.213,196.400 350.925 C 196.400 350.636,196.580 350.400,196.800 350.400 C 197.020 350.400,197.200 350.164,197.200 349.875 C 197.200 349.587,197.560 348.964,198.000 348.492 C 198.440 348.020,198.800 347.396,198.800 347.105 C 198.800 346.814,199.160 346.317,199.600 346.000 C 200.040 345.683,200.400 345.143,200.400 344.800 C 200.400 344.457,200.760 343.917,201.200 343.600 C 201.640 343.283,202.000 342.786,202.000 342.495 C 202.000 342.204,202.331 341.611,202.736 341.177 C 203.141 340.742,203.726 339.895,204.036 339.293 C 204.346 338.692,204.915 337.851,205.300 337.425 C 205.685 336.998,206.000 336.413,206.000 336.125 C 206.000 335.836,206.168 335.600,206.373 335.600 C 206.578 335.600,206.854 335.261,206.985 334.848 C 207.116 334.434,207.578 333.686,208.012 333.186 C 208.445 332.687,208.800 331.985,208.800 331.627 C 208.800 331.269,209.160 330.717,209.600 330.400 C 210.040 330.083,210.400 329.503,210.400 329.112 C 210.400 328.720,210.580 328.400,210.800 328.400 C 211.020 328.400,211.200 328.164,211.200 327.875 C 211.200 327.587,211.560 326.964,212.000 326.492 C 212.440 326.020,212.800 325.446,212.800 325.217 C 212.800 324.988,212.980 324.800,213.200 324.800 C 213.420 324.800,213.600 324.530,213.600 324.200 C 213.600 323.870,213.780 323.600,214.000 323.600 C 214.220 323.600,214.400 323.330,214.400 323.000 C 214.400 322.670,214.550 322.400,214.732 322.400 C 214.915 322.400,215.320 321.905,215.632 321.300 C 215.945 320.695,216.515 319.851,216.900 319.425 C 217.285 318.998,217.600 318.413,217.600 318.125 C 217.600 317.836,217.780 317.600,218.000 317.600 C 218.220 317.600,218.400 317.280,218.400 316.888 C 218.400 316.497,218.760 315.917,219.200 315.600 C 219.640 315.283,220.000 314.743,220.000 314.400 C 220.000 314.057,220.360 313.517,220.800 313.200 C 221.240 312.883,221.600 312.303,221.600 311.912 C 221.600 311.520,221.758 311.200,221.951 311.200 C 222.145 311.200,222.527 310.660,222.800 310.000 C 223.073 309.340,223.417 308.800,223.564 308.800 C 223.711 308.800,224.349 307.810,224.982 306.600 C 225.615 305.390,226.283 304.400,226.467 304.400 C 226.650 304.400,226.800 304.080,226.800 303.688 C 226.800 303.297,227.160 302.717,227.600 302.400 C 228.040 302.083,228.400 301.543,228.400 301.200 C 228.400 300.857,228.760 300.317,229.200 300.000 C 229.640 299.683,230.000 299.186,230.000 298.895 C 230.000 298.604,230.360 297.980,230.800 297.508 C 231.240 297.036,231.600 296.413,231.600 296.125 C 231.600 295.836,231.780 295.600,232.000 295.600 C 232.220 295.600,232.400 295.364,232.400 295.075 C 232.400 294.787,232.760 294.164,233.200 293.692 C 233.640 293.220,234.000 292.596,234.000 292.305 C 234.000 292.014,234.360 291.517,234.800 291.200 C 235.240 290.883,235.600 290.393,235.600 290.112 C 235.600 289.830,235.780 289.600,236.000 289.600 C 236.220 289.600,236.400 289.330,236.400 289.000 C 236.400 288.670,236.580 288.400,236.800 288.400 C 237.020 288.400,237.200 288.130,237.200 287.800 C 237.200 287.470,237.380 287.200,237.600 287.200 C 237.820 287.200,238.000 286.964,238.000 286.675 C 238.000 286.387,238.360 285.764,238.800 285.292 C 239.240 284.820,239.600 284.156,239.600 283.817 C 239.600 283.478,239.767 283.200,239.971 283.200 C 240.175 283.200,240.660 282.480,241.048 281.600 C 241.436 280.720,241.899 280.000,242.077 280.000 C 242.255 280.000,242.400 279.680,242.400 279.288 C 242.400 278.897,242.760 278.317,243.200 278.000 C 243.640 277.683,244.000 277.186,244.000 276.895 C 244.000 276.604,244.331 276.011,244.736 275.577 C 245.141 275.142,245.725 274.295,246.033 273.693 C 246.342 273.092,246.911 272.309,247.297 271.953 C 247.684 271.597,248.000 271.052,248.000 270.741 C 248.000 270.431,248.360 269.917,248.800 269.600 C 249.240 269.283,249.600 268.786,249.600 268.495 C 249.600 268.204,249.960 267.580,250.400 267.108 C 250.840 266.636,251.200 266.013,251.200 265.725 C 251.200 265.436,251.380 265.200,251.600 265.200 C 251.820 265.200,252.000 264.964,252.000 264.675 C 252.000 264.387,252.360 263.764,252.800 263.292 C 253.240 262.820,253.600 262.196,253.600 261.905 C 253.600 261.614,253.960 261.117,254.400 260.800 C 254.840 260.483,255.200 259.918,255.200 259.545 C 255.200 259.172,255.345 258.807,255.523 258.733 C 255.989 258.541,258.161 255.260,258.987 253.500 C 259.374 252.675,259.851 252.000,260.046 252.000 C 260.241 252.000,260.400 251.680,260.400 251.288 C 260.400 250.897,260.760 250.317,261.200 250.000 C 261.640 249.683,262.000 249.143,262.000 248.800 C 262.000 248.457,262.360 247.917,262.800 247.600 C 263.240 247.283,263.600 246.743,263.600 246.400 C 263.600 246.057,263.960 245.517,264.400 245.200 C 264.840 244.883,265.200 244.303,265.200 243.912 C 265.200 243.520,265.380 243.200,265.600 243.200 C 265.820 243.200,266.000 242.958,266.000 242.662 C 266.000 242.366,266.360 241.798,266.800 241.400 C 267.240 241.002,267.600 240.434,267.600 240.138 C 267.600 239.842,267.750 239.600,267.932 239.600 C 268.115 239.600,268.520 239.105,268.832 238.500 C 269.145 237.895,269.715 237.051,270.100 236.625 C 270.485 236.198,270.800 235.613,270.800 235.325 C 270.800 235.036,270.958 234.800,271.151 234.800 C 271.345 234.800,271.727 234.260,272.000 233.600 C 272.273 232.940,272.655 232.400,272.849 232.400 C 273.042 232.400,273.200 232.040,273.200 231.600 C 273.200 231.160,273.367 230.800,273.571 230.800 C 273.775 230.800,274.260 230.080,274.648 229.200 C 275.036 228.320,275.499 227.600,275.677 227.600 C 275.855 227.600,276.000 227.280,276.000 226.888 C 276.000 226.497,276.360 225.917,276.800 225.600 C 277.240 225.283,277.600 224.793,277.600 224.512 C 277.600 224.230,277.780 224.000,278.000 224.000 C 278.220 224.000,278.400 223.730,278.400 223.400 C 278.400 223.070,278.580 222.800,278.800 222.800 C 279.020 222.800,279.200 222.530,279.200 222.200 C 279.200 221.870,279.380 221.600,279.600 221.600 C 279.820 221.600,280.000 221.280,280.000 220.888 C 280.000 220.497,280.360 219.917,280.800 219.600 C 281.240 219.283,281.600 218.743,281.600 218.400 C 281.600 218.057,281.960 217.517,282.400 217.200 C 282.840 216.883,283.200 216.343,283.200 216.000 C 283.200 215.657,283.560 215.117,284.000 214.800 C 284.440 214.483,284.800 213.903,284.800 213.512 C 284.800 213.120,284.958 212.800,285.151 212.800 C 285.345 212.800,285.727 212.260,286.000 211.600 C 286.273 210.940,286.655 210.400,286.849 210.400 C 287.042 210.400,287.200 210.164,287.200 209.875 C 287.200 209.587,287.560 208.964,288.000 208.492 C 288.440 208.020,288.800 207.534,288.800 207.413 C 288.800 207.291,289.430 206.295,290.200 205.200 C 290.970 204.105,291.600 203.019,291.600 202.787 C 291.600 202.556,291.960 201.980,292.400 201.508 C 292.840 201.036,293.200 200.413,293.200 200.125 C 293.200 199.836,293.380 199.600,293.600 199.600 C 293.820 199.600,294.000 199.280,294.000 198.888 C 294.000 198.497,294.360 197.917,294.800 197.600 C 295.240 197.283,295.600 196.743,295.600 196.400 C 295.600 196.057,295.960 195.517,296.400 195.200 C 296.840 194.883,297.200 194.369,297.200 194.059 C 297.200 193.748,297.516 193.203,297.903 192.847 C 298.289 192.491,298.858 191.708,299.167 191.107 C 299.475 190.505,300.059 189.658,300.464 189.223 C 300.869 188.789,301.200 188.196,301.200 187.905 C 301.200 187.614,301.560 187.117,302.000 186.800 C 302.440 186.483,302.800 185.986,302.800 185.695 C 302.800 185.404,303.160 184.780,303.600 184.308 C 304.040 183.836,304.400 183.213,304.400 182.925 C 304.400 182.636,304.568 182.400,304.773 182.400 C 304.978 182.400,305.260 182.041,305.399 181.602 C 305.538 181.164,305.866 180.573,306.126 180.290 C 306.824 179.532,307.978 177.557,308.458 176.300 C 308.689 175.695,309.041 175.200,309.239 175.200 C 309.438 175.200,309.600 174.930,309.600 174.600 C 309.600 174.270,309.750 174.000,309.932 174.000 C 310.115 174.000,310.520 173.505,310.832 172.900 C 311.145 172.295,311.715 171.451,312.100 171.025 C 312.485 170.598,312.800 170.013,312.800 169.725 C 312.800 169.436,312.980 169.200,313.200 169.200 C 313.420 169.200,313.600 168.964,313.600 168.675 C 313.600 168.387,313.960 167.764,314.400 167.292 C 314.840 166.820,315.200 166.196,315.200 165.905 C 315.200 165.614,315.560 165.117,316.000 164.800 C 316.440 164.483,316.800 163.943,316.800 163.600 C 316.800 163.257,317.160 162.717,317.600 162.400 C 318.040 162.083,318.400 161.586,318.400 161.295 C 318.400 161.004,318.751 160.390,319.180 159.929 C 319.609 159.469,320.236 158.511,320.573 157.801 C 320.910 157.091,321.459 156.283,321.793 156.006 C 322.127 155.729,322.400 155.254,322.400 154.951 C 322.400 154.648,322.568 154.400,322.773 154.400 C 322.978 154.400,323.254 154.061,323.385 153.648 C 323.516 153.234,323.978 152.486,324.412 151.986 C 324.845 151.487,325.200 150.785,325.200 150.427 C 325.200 150.069,325.560 149.517,326.000 149.200 C 326.440 148.883,326.800 148.303,326.800 147.912 C 326.800 147.520,326.980 147.200,327.200 147.200 C 327.420 147.200,327.600 146.964,327.600 146.675 C 327.600 146.387,327.960 145.764,328.400 145.292 C 328.840 144.820,329.200 144.196,329.200 143.905 C 329.200 143.614,329.560 143.117,330.000 142.800 C 330.440 142.483,330.800 141.993,330.800 141.712 C 330.800 141.430,330.935 141.199,331.100 141.197 C 331.459 141.193,332.400 139.256,332.400 138.520 C 332.400 138.234,332.580 138.000,332.800 138.000 C 333.673 138.000,333.278 129.421,332.322 127.631 C 331.185 125.500,329.069 123.200,328.246 123.200 C 327.891 123.200,327.600 123.020,327.600 122.800 C 327.600 122.580,327.240 122.400,326.800 122.400 C 326.360 122.400,326.000 122.220,326.000 122.000 C 326.000 121.780,325.460 121.600,324.800 121.600 C 324.140 121.600,323.600 121.420,323.600 121.200 C 323.600 120.936,307.867 120.800,277.200 120.800 C 246.533 120.800,230.800 120.664,230.800 120.400 C 230.800 120.180,230.980 120.000,231.200 120.000 C 231.420 120.000,231.600 119.651,231.600 119.224 C 231.600 118.797,231.780 118.336,232.000 118.200 C 232.220 118.064,232.400 117.513,232.400 116.976 C 232.400 116.439,232.580 116.000,232.800 116.000 C 233.020 116.000,233.200 115.640,233.200 115.200 C 233.200 114.760,233.380 114.400,233.600 114.400 C 233.820 114.400,234.000 114.040,234.000 113.600 C 234.000 113.160,234.141 112.800,234.313 112.800 C 234.485 112.800,234.874 111.945,235.178 110.900 C 235.482 109.855,235.836 108.910,235.965 108.800 C 236.437 108.398,237.200 106.795,237.200 106.205 C 237.200 105.872,237.380 105.600,237.600 105.600 C 237.820 105.600,238.000 105.251,238.000 104.824 C 238.000 104.397,238.180 103.936,238.400 103.800 C 238.620 103.664,238.800 103.203,238.800 102.776 C 238.800 102.349,238.980 102.000,239.200 102.000 C 239.420 102.000,239.600 101.764,239.600 101.475 C 239.600 101.186,239.944 100.238,240.364 99.368 C 240.785 98.498,241.255 97.114,241.409 96.293 C 241.563 95.472,241.849 94.800,242.045 94.800 C 242.240 94.800,242.400 94.440,242.400 94.000 C 242.400 93.560,242.580 93.200,242.800 93.200 C 243.020 93.200,243.200 92.840,243.200 92.400 C 243.200 91.960,243.380 91.600,243.600 91.600 C 243.820 91.600,244.000 91.150,244.000 90.600 C 244.000 90.050,244.180 89.600,244.400 89.600 C 244.620 89.600,244.800 89.240,244.800 88.800 C 244.800 88.360,244.980 88.000,245.200 88.000 C 245.420 88.000,245.600 87.640,245.600 87.200 C 245.600 86.760,245.780 86.400,246.000 86.400 C 246.220 86.400,246.400 85.961,246.400 85.424 C 246.400 84.887,246.580 84.336,246.800 84.200 C 247.020 84.064,247.200 83.603,247.200 83.176 C 247.200 82.749,247.380 82.400,247.600 82.400 C 247.820 82.400,248.000 82.040,248.000 81.600 C 248.000 81.160,248.180 80.800,248.400 80.800 C 248.620 80.800,248.800 80.440,248.800 80.000 C 248.800 79.560,248.980 79.200,249.200 79.200 C 249.420 79.200,249.600 78.761,249.600 78.224 C 249.600 77.687,249.780 77.136,250.000 77.000 C 250.220 76.864,250.400 76.403,250.400 75.976 C 250.400 75.549,250.580 75.200,250.800 75.200 C 251.020 75.200,251.200 74.840,251.200 74.400 C 251.200 73.960,251.380 73.600,251.600 73.600 C 251.820 73.600,252.000 73.251,252.000 72.824 C 252.000 72.397,252.180 71.936,252.400 71.800 C 252.620 71.664,252.800 71.203,252.800 70.776 C 252.800 70.349,252.980 70.000,253.200 70.000 C 253.420 70.000,253.600 69.640,253.600 69.200 C 253.600 68.760,253.780 68.400,254.000 68.400 C 254.220 68.400,254.400 68.128,254.400 67.795 C 254.400 67.462,254.580 66.832,254.800 66.395 C 255.020 65.958,255.380 65.242,255.600 64.805 C 255.820 64.368,256.000 63.738,256.000 63.405 C 256.000 63.072,256.180 62.800,256.400 62.800 C 256.620 62.800,256.800 62.564,256.800 62.275 C 256.800 61.986,257.165 60.995,257.610 60.073 C 258.056 59.150,258.529 57.856,258.660 57.198 C 258.792 56.539,259.058 56.000,259.250 56.000 C 259.443 56.000,259.600 55.640,259.600 55.200 C 259.600 54.760,259.780 54.400,260.000 54.400 C 260.220 54.400,260.400 54.051,260.400 53.624 C 260.400 53.197,260.580 52.736,260.800 52.600 C 261.020 52.464,261.200 51.913,261.200 51.376 C 261.200 50.839,261.380 50.400,261.600 50.400 C 261.820 50.400,262.000 50.040,262.000 49.600 C 262.000 49.160,262.180 48.800,262.400 48.800 C 262.620 48.800,262.800 48.440,262.800 48.000 C 262.800 47.560,262.980 47.200,263.200 47.200 C 263.420 47.200,263.600 46.851,263.600 46.424 C 263.600 45.997,263.780 45.536,264.000 45.400 C 264.220 45.264,264.400 44.713,264.400 44.176 C 264.400 43.639,264.580 43.200,264.800 43.200 C 265.020 43.200,265.200 42.840,265.200 42.400 C 265.200 41.960,265.380 41.600,265.600 41.600 C 265.820 41.600,266.000 41.240,266.000 40.800 C 266.000 40.360,266.180 40.000,266.400 40.000 C 266.620 40.000,266.800 39.651,266.800 39.224 C 266.800 38.797,266.980 38.336,267.200 38.200 C 267.420 38.064,267.600 37.603,267.600 37.176 C 267.600 36.749,267.780 36.400,268.000 36.400 C 268.220 36.400,268.400 36.040,268.400 35.600 C 268.400 35.160,268.580 34.800,268.800 34.800 C 269.020 34.800,269.200 34.451,269.200 34.024 C 269.200 33.597,269.380 33.136,269.600 33.000 C 269.820 32.864,270.000 32.313,270.000 31.776 C 270.000 31.239,270.180 30.800,270.400 30.800 C 270.620 30.800,270.800 30.440,270.800 30.000 C 270.800 29.560,270.980 29.200,271.200 29.200 C 271.420 29.200,271.600 28.840,271.600 28.400 C 271.600 27.960,271.780 27.600,272.000 27.600 C 272.220 27.600,272.400 27.325,272.400 26.989 C 272.400 26.652,273.030 25.050,273.800 23.427 C 274.570 21.804,275.200 20.100,275.200 19.638 C 275.200 19.177,275.380 18.800,275.600 18.800 C 275.820 18.800,276.000 18.350,276.000 17.800 C 276.000 17.250,276.180 16.800,276.400 16.800 C 276.620 16.800,276.800 16.260,276.800 15.600 C 276.800 14.940,276.980 14.400,277.200 14.400 C 277.426 14.400,277.600 13.267,277.600 11.800 C 277.600 10.333,277.426 9.200,277.200 9.200 C 276.980 9.200,276.800 8.660,276.800 8.000 C 276.800 7.340,276.620 6.800,276.400 6.800 C 276.180 6.800,276.000 6.440,276.000 6.000 C 276.000 5.560,275.820 5.200,275.600 5.200 C 275.380 5.200,275.200 4.924,275.200 4.587 C 275.200 3.921,272.666 1.200,272.047 1.200 C 271.838 1.200,271.592 0.975,271.500 0.700 C 271.333 0.200,153.879 -0.236,152.400 0.258 " stroke="none" fill="#14C15A" fill-rule="evenodd"></path><path id="path1" d="" stroke="none" fill="#14C15A" fill-rule="evenodd"></path><path id="path2" d="" stroke="none" fill="#14C15A" fill-rule="evenodd"></path><path id="path3" d="" stroke="none" fill="#14C15A" fill-rule="evenodd"></path><path id="path4" d="" stroke="none" fill="#14C15A" fill-rule="evenodd"></path></g></svg>